<?xml version="1.0" encoding="UTF-8"?>
<!-- Generated by Pixelmator Pro 3.4.3 -->
<svg viewBox="0 0 2000 1900" xmlns="http://www.w3.org/2000/svg">
    <path id="Path" fill="#000000" fill-rule="evenodd" stroke="#000000" stroke-width="3"
        d="M 826 1006 L 531 1348 L 600 1393 L 913 1063 L 791 1115" />
    <path id="path1" fill="#d5d5d5" fill-rule="evenodd" stroke="#000000" stroke-width="3"
        d="M 2088 1034 L 1343 119 L 1646 897 L 2113 1706" />
    <path id="path2" fill="#d5d5d5" fill-rule="evenodd" stroke="#000000" stroke-width="3"
        d="M 1905 1358 L 685 350 L 1509 1325 L 2113 1766 L 2113 1706" />
    <path id="path3" fill="#d5d5d5" fill-rule="evenodd" stroke="#000000" stroke-width="3"
        d="M 1671 1706 L 743.000061 1544 L 2071 2238 L 2113 1980" />
    <path id="path4" fill="#d5d5d5" fill-rule="evenodd" stroke="#000000" stroke-width="3"
        d="M 1506 1948 L 106 1393 L 546 1766 L 2046 2523 L 2070 2238" />
    <path id="v" fill="#000000" fill-rule="evenodd" stroke="#000000" stroke-width="3"
        d="M 1213 515 L 1198 562 L 1133 604 L 1182 720 L 1199 829 L 1230 950 L 1342 842 L 1390 749 L 1426 703 L 1394 593 L 1316 507 L 1244 508" />
    <path id="path5" fill="#000000" fill-rule="evenodd" stroke="#000000" stroke-width="3"
        d="M 1340 422 L 1258 382 L 1182 410 L 1279 472" />
    <path id="path6" fill="#000000" fill-rule="evenodd" stroke="#000000" stroke-width="3"
        d="M 1159 441 L 1279 462 L 1246 507 L 1158 544 L 1111 531" />
    <path id="path7" fill="#000000" fill-rule="evenodd" stroke="#000000" stroke-width="3"
        d="M 1279 462 L 1340 441 L 1384 544 L 1279 507" />
    <path id="path8" fill="#000000" fill-rule="evenodd" stroke="#000000" stroke-width="3"
        d="M 1111 534 L 1000 654 L 1133 600" />
    <path id="path9" fill="#ffffff" fill-rule="evenodd" stroke="#000000" stroke-width="3"
        d="M 1133 599 L 1000 654 L 915 755 L 860 912 L 1088 1063 L 1279 950 L 1384 845 L 1426 707 L 1232 950 L 1182 728 L 1195 728" />
    <path id="path10" fill="#ffffff" fill-rule="evenodd" stroke="#000000" stroke-width="3"
        d="M 1332 526 L 1392 588 L 1384 544" />
    <path id="path11" fill="#ffffff" fill-rule="evenodd" stroke="#000000" stroke-width="3"
        d="M 1293 462 L 1340 422 L 1355 449" />
    <path id="path12" fill="#ffffff" fill-rule="evenodd" stroke="#000000" stroke-width="3"
        d="M 1261 462 L 1182 406 L 1158 441" />
    <path id="path13" fill="#ffffff" fill-rule="evenodd" stroke="#000000" stroke-width="3"
        d="M 1279 472 L 1241 507 L 1279 544 L 1307 526" />
    <path id="path14" fill="#ffffff" fill-rule="evenodd" stroke="#000000" stroke-width="3"
        d="M 827 1006 L 790 1114 L 895 1067" />
    <path id="path15" fill="#ffffff" fill-rule="evenodd" stroke="#000000" stroke-width="3"
        d="M 1206 526 L 1157 544 L 1111 530 L 1133 599 L 1195 562" />
    <path id="path16" fill="#d5d5d5" fill-rule="evenodd" stroke="#000000" stroke-width="3"
        d="M 1483 1306 L 440 636 L 1343 1490 L 2073 1980 L 2113 1766" />
</svg>
