<?xml version="1.0" encoding="UTF-8" ?>
<!-- Generated by Pixelmator Pro 3.7.1 -->
<svg
    width="200"
    height="200"
    viewBox="0 0 200 200"
    xmlns="http://www.w3.org/2000/svg"
>
    <path
        id="Path"
        fill="currentColor"
        fill-rule="evenodd"
        stroke="none"
        d="M 100.515625 89.429688 L 100.515625 82.148438 C 100.515625 50.334274 54.035442 19.050201 23.659689 26.706848 C 2.041065 32.156525 6.261511 84.060699 26.977299 96.355667 C 42.396622 105.50705 63.923439 106.970695 78.590782 116.958504 C 81.445801 118.902527 71.73761 117.912376 68.286316 118.049927 C 43.574131 119.03476 41.125721 121.420647 29.341293 142.311188 C 7.085163 181.765137 67.324493 186.043411 93.725937 177.66658 C 110.535789 172.332962 105.401863 150.724686 111.346359 147.247726 C 115.117523 145.041855 132.562759 166.25293 135.9496 168.702286 C 172.381226 195.049149 218.498276 147.182922 168.783249 120.050629 C 161.080963 115.847153 146.03537 117.491539 139.949738 112.685295 C 139.935318 112.673904 160.536407 102.203423 162.730698 101.063492 C 190.807678 86.477798 195.970581 4.028641 153.652618 11.116684 C 132.756912 14.616547 113.079651 70.943008 100.117188 89.648438 C 100.030891 89.772972 100.515625 89.5812 100.515625 89.429688 Z"
    />
</svg>
