<?xml version="1.0" encoding="UTF-8" ?>
<!-- Generated by Pixelmator Pro 3.7.1 -->
<svg
    width="200"
    height="200"
    viewBox="0 0 200 200"
    xmlns="http://www.w3.org/2000/svg"
>
    <path
        id="Path"
        fill="none"
        stroke="currentColor"
        stroke-width="15"
        d="M 145.801285 48.90094 L 143.148163 48.90094 C 114.580788 48.90094 84.419159 46.245773 55.916203 48.961838 C 43.517429 50.143311 47.779888 77.435738 48.218452 84.874207 C 49.316368 103.49675 48.146313 121.65834 48.87862 140.178741 C 49.435005 154.256241 51.319504 157.753174 66.501991 157.429901 C 89.045029 156.949966 114.114868 152.845734 136.368408 156.268402 C 152.842133 158.801971 167.238602 160.144165 168.362625 140.105835 C 169.663284 116.907532 164.329956 94.423126 166.381989 70.992477 C 167.660461 56.40065 160.506958 46.204498 146.125778 48.888214 C 146.019363 48.908066 145.909531 48.90094 145.801285 48.90094 Z"
    />
    <path
        id="path1"
        fill="none"
        stroke="currentColor"
        stroke-width="15"
        d="M 112.712448 84.27813 L 110.544983 84.27813 C 94.665726 84.27813 82.781769 88.793602 84.154091 106.31739 C 85.456795 122.957069 98.777962 139.108765 117.619102 135.833908 C 136.915222 132.479858 136.614349 109.562065 127.940567 97.524544 C 124.27655 92.439789 121.084137 89.909996 115.501312 87.094559 C 114.321632 86.499641 114.033646 84.27813 112.712448 84.27813 Z"
    />
    <path
        id="path2"
        fill="none"
        stroke="currentColor"
        stroke-width="15"
        d="M 144.454575 59.30986 L 146.214844 59.095657 C 153.160233 58.255447 153.57637 67.73877 146.079941 68.693771 C 139.300079 69.558029 135.391525 61.342743 142.35498 58.682098 C 143.037338 58.421371 143.729446 59.398102 144.454575 59.30986 Z"
    />
</svg>
